<?xml version="1.0" encoding="utf-8"?>
<!-- Generator: Adobe Illustrator 23.0.1, SVG Export Plug-In . SVG Version: 6.00 Build 0)  -->
<svg version="1.1" id="Layer_1" xmlns="http://www.w3.org/2000/svg" xmlns:xlink="http://www.w3.org/1999/xlink" x="0px" y="0px"
	 viewBox="0 0 1000 1000" enable-background="new 0 0 1000 1000" xml:space="preserve">
<title>Black white background</title>
<desc>author: David Zydd</desc>
<g>
	<defs>
		<rect id="SVGID_1_" width="1000" height="1000"/>
	</defs>
	<use xlink:href="#SVGID_1_"  overflow="visible" fill="#F4F6F3"/>
	<clipPath id="SVGID_2_">
		<use xlink:href="#SVGID_1_"  overflow="visible"/>
	</clipPath>
	<g clip-path="url(#SVGID_2_)">
		<g>
			<g id="group_tmp_all">
				<g id="group_all">
					<g transform="translate(50,50) scale(1) rotate(0)">
						<g id="shape_1">
							<path fill="#435757" d="M5,55h90L50,95L5,55z"/>
						</g>
					</g>
					<g transform="translate(50,50) scale(1) rotate(180)">
						<g id="shape_1_1_">
							<path fill="#435757" d="M95,45H5L50,5L95,45z"/>
						</g>
					</g>
					<g transform="translate(50,150) scale(0.8) rotate(0)">
						<g id="shape_1_2_">
							<path fill="#435757" d="M14,154h72l-36,32L14,154z"/>
						</g>
					</g>
					<g transform="translate(50,150) scale(0.8) rotate(180)">
						<g id="shape_1_3_">
							<path fill="#435757" d="M86,146H14l36-32L86,146z"/>
						</g>
					</g>
					<g transform="translate(50,250) scale(0.6) rotate(0)">
						<g id="shape_1_4_">
							<path fill="#435757" d="M23,253h54l-27,24L23,253z"/>
						</g>
					</g>
					<g transform="translate(50,250) scale(0.6) rotate(180)">
						<g id="shape_1_5_">
							<path fill="#435757" d="M77,247H23l27-24L77,247z"/>
						</g>
					</g>
					<g transform="translate(50,350) scale(0.4) rotate(0)">
						<g id="shape_1_6_">
							<path fill="#435757" d="M32,352h36l-18,16L32,352z"/>
						</g>
					</g>
					<g transform="translate(50,350) scale(0.4) rotate(180)">
						<g id="shape_1_7_">
							<path fill="#435757" d="M68,348H32l18-16L68,348z"/>
						</g>
					</g>
					<g transform="translate(50,450) scale(0.2) rotate(0)">
						<g id="shape_1_8_">
							<path fill="#435757" d="M41,451h18l-9,8L41,451z"/>
						</g>
					</g>
					<g transform="translate(50,450) scale(0.2) rotate(180)">
						<g id="shape_1_9_">
							<path fill="#435757" d="M59,449H41l9-8L59,449z"/>
						</g>
					</g>
					<g transform="translate(50,550) scale(0.2) rotate(0)">
						<g id="shape_1_10_">
							<path fill="#435757" d="M41,551h18l-9,8L41,551z"/>
						</g>
					</g>
					<g transform="translate(50,550) scale(0.2) rotate(180)">
						<g id="shape_1_11_">
							<path fill="#435757" d="M59,549H41l9-8L59,549z"/>
						</g>
					</g>
					<g transform="translate(50,650) scale(0.4) rotate(0)">
						<g id="shape_1_12_">
							<path fill="#435757" d="M32,652h36l-18,16L32,652z"/>
						</g>
					</g>
					<g transform="translate(50,650) scale(0.4) rotate(180)">
						<g id="shape_1_13_">
							<path fill="#435757" d="M68,648H32l18-16L68,648z"/>
						</g>
					</g>
					<g transform="translate(50,750) scale(0.6) rotate(0)">
						<g id="shape_1_14_">
							<path fill="#435757" d="M23,753h54l-27,24L23,753z"/>
						</g>
					</g>
					<g transform="translate(50,750) scale(0.6) rotate(180)">
						<g id="shape_1_15_">
							<path fill="#435757" d="M77,747H23l27-24L77,747z"/>
						</g>
					</g>
					<g transform="translate(50,850) scale(0.8) rotate(0)">
						<g id="shape_1_16_">
							<path fill="#435757" d="M14,854h72l-36,32L14,854z"/>
						</g>
					</g>
					<g transform="translate(50,850) scale(0.8) rotate(180)">
						<g id="shape_1_17_">
							<path fill="#435757" d="M86,846H14l36-32L86,846z"/>
						</g>
					</g>
					<g transform="translate(50,950) scale(1) rotate(0)">
						<g id="shape_1_18_">
							<path fill="#435757" d="M5,955h90l-45,40L5,955z"/>
						</g>
					</g>
					<g transform="translate(50,950) scale(1) rotate(180)">
						<g id="shape_1_19_">
							<path fill="#435757" d="M95,945H5l45-40L95,945z"/>
						</g>
					</g>
					<g transform="translate(150,50) scale(1) rotate(0)">
						<g id="shape_1_20_">
							<path fill="#435757" d="M105,55h90l-45,40L105,55z"/>
						</g>
					</g>
					<g transform="translate(150,50) scale(1) rotate(180)">
						<g id="shape_1_21_">
							<path fill="#435757" d="M195,45h-90l45-40L195,45z"/>
						</g>
					</g>
					<g transform="translate(150,150) scale(0.8) rotate(0)">
						<g id="shape_1_22_">
							<path fill="#435757" d="M114,154h72l-36,32L114,154z"/>
						</g>
					</g>
					<g transform="translate(150,150) scale(0.8) rotate(180)">
						<g id="shape_1_23_">
							<path fill="#435757" d="M186,146h-72l36-32L186,146z"/>
						</g>
					</g>
					<g transform="translate(150,250) scale(0.6) rotate(0)">
						<g id="shape_1_24_">
							<path fill="#435757" d="M123,253h54l-27,24L123,253z"/>
						</g>
					</g>
					<g transform="translate(150,250) scale(0.6) rotate(180)">
						<g id="shape_1_25_">
							<path fill="#435757" d="M177,247h-54l27-24L177,247z"/>
						</g>
					</g>
					<g transform="translate(150,350) scale(0.4) rotate(0)">
						<g id="shape_1_26_">
							<path fill="#435757" d="M132,352h36l-18,16L132,352z"/>
						</g>
					</g>
					<g transform="translate(150,350) scale(0.4) rotate(180)">
						<g id="shape_1_27_">
							<path fill="#435757" d="M168,348h-36l18-16L168,348z"/>
						</g>
					</g>
					<g transform="translate(150,450) scale(0.2) rotate(0)">
						<g id="shape_1_28_">
							<path fill="#435757" d="M141,451h18l-9,8L141,451z"/>
						</g>
					</g>
					<g transform="translate(150,450) scale(0.2) rotate(180)">
						<g id="shape_1_29_">
							<path fill="#435757" d="M159,449h-18l9-8L159,449z"/>
						</g>
					</g>
					<g transform="translate(150,550) scale(0.2) rotate(0)">
						<g id="shape_1_30_">
							<path fill="#435757" d="M141,551h18l-9,8L141,551z"/>
						</g>
					</g>
					<g transform="translate(150,550) scale(0.2) rotate(180)">
						<g id="shape_1_31_">
							<path fill="#435757" d="M159,549h-18l9-8L159,549z"/>
						</g>
					</g>
					<g transform="translate(150,650) scale(0.4) rotate(0)">
						<g id="shape_1_32_">
							<path fill="#435757" d="M132,652h36l-18,16L132,652z"/>
						</g>
					</g>
					<g transform="translate(150,650) scale(0.4) rotate(180)">
						<g id="shape_1_33_">
							<path fill="#435757" d="M168,648h-36l18-16L168,648z"/>
						</g>
					</g>
					<g transform="translate(150,750) scale(0.6) rotate(0)">
						<g id="shape_1_34_">
							<path fill="#435757" d="M123,753h54l-27,24L123,753z"/>
						</g>
					</g>
					<g transform="translate(150,750) scale(0.6) rotate(180)">
						<g id="shape_1_35_">
							<path fill="#435757" d="M177,747h-54l27-24L177,747z"/>
						</g>
					</g>
					<g transform="translate(150,850) scale(0.8) rotate(0)">
						<g id="shape_1_36_">
							<path fill="#435757" d="M114,854h72l-36,32L114,854z"/>
						</g>
					</g>
					<g transform="translate(150,850) scale(0.8) rotate(180)">
						<g id="shape_1_37_">
							<path fill="#435757" d="M186,846h-72l36-32L186,846z"/>
						</g>
					</g>
					<g transform="translate(150,950) scale(1) rotate(0)">
						<g id="shape_1_38_">
							<path fill="#435757" d="M105,955h90l-45,40L105,955z"/>
						</g>
					</g>
					<g transform="translate(150,950) scale(1) rotate(180)">
						<g id="shape_1_39_">
							<path fill="#435757" d="M195,945h-90l45-40L195,945z"/>
						</g>
					</g>
					<g transform="translate(250,50) scale(1) rotate(0)">
						<g id="shape_1_40_">
							<path fill="#435757" d="M205,55h90l-45,40L205,55z"/>
						</g>
					</g>
					<g transform="translate(250,50) scale(1) rotate(180)">
						<g id="shape_1_41_">
							<path fill="#435757" d="M295,45h-90l45-40L295,45z"/>
						</g>
					</g>
					<g transform="translate(250,150) scale(0.8) rotate(0)">
						<g id="shape_1_42_">
							<path fill="#435757" d="M214,154h72l-36,32L214,154z"/>
						</g>
					</g>
					<g transform="translate(250,150) scale(0.8) rotate(180)">
						<g id="shape_1_43_">
							<path fill="#435757" d="M286,146h-72l36-32L286,146z"/>
						</g>
					</g>
					<g transform="translate(250,250) scale(0.6) rotate(0)">
						<g id="shape_1_44_">
							<path fill="#435757" d="M223,253h54l-27,24L223,253z"/>
						</g>
					</g>
					<g transform="translate(250,250) scale(0.6) rotate(180)">
						<g id="shape_1_45_">
							<path fill="#435757" d="M277,247h-54l27-24L277,247z"/>
						</g>
					</g>
					<g transform="translate(250,350) scale(0.4) rotate(0)">
						<g id="shape_1_46_">
							<path fill="#435757" d="M232,352h36l-18,16L232,352z"/>
						</g>
					</g>
					<g transform="translate(250,350) scale(0.4) rotate(180)">
						<g id="shape_1_47_">
							<path fill="#435757" d="M268,348h-36l18-16L268,348z"/>
						</g>
					</g>
					<g transform="translate(250,450) scale(0.2) rotate(0)">
						<g id="shape_1_48_">
							<path fill="#435757" d="M241,451h18l-9,8L241,451z"/>
						</g>
					</g>
					<g transform="translate(250,450) scale(0.2) rotate(180)">
						<g id="shape_1_49_">
							<path fill="#435757" d="M259,449h-18l9-8L259,449z"/>
						</g>
					</g>
					<g transform="translate(250,550) scale(0.2) rotate(0)">
						<g id="shape_1_50_">
							<path fill="#435757" d="M241,551h18l-9,8L241,551z"/>
						</g>
					</g>
					<g transform="translate(250,550) scale(0.2) rotate(180)">
						<g id="shape_1_51_">
							<path fill="#435757" d="M259,549h-18l9-8L259,549z"/>
						</g>
					</g>
					<g transform="translate(250,650) scale(0.4) rotate(0)">
						<g id="shape_1_52_">
							<path fill="#435757" d="M232,652h36l-18,16L232,652z"/>
						</g>
					</g>
					<g transform="translate(250,650) scale(0.4) rotate(180)">
						<g id="shape_1_53_">
							<path fill="#435757" d="M268,648h-36l18-16L268,648z"/>
						</g>
					</g>
					<g transform="translate(250,750) scale(0.6) rotate(0)">
						<g id="shape_1_54_">
							<path fill="#435757" d="M223,753h54l-27,24L223,753z"/>
						</g>
					</g>
					<g transform="translate(250,750) scale(0.6) rotate(180)">
						<g id="shape_1_55_">
							<path fill="#435757" d="M277,747h-54l27-24L277,747z"/>
						</g>
					</g>
					<g transform="translate(250,850) scale(0.8) rotate(0)">
						<g id="shape_1_56_">
							<path fill="#435757" d="M214,854h72l-36,32L214,854z"/>
						</g>
					</g>
					<g transform="translate(250,850) scale(0.8) rotate(180)">
						<g id="shape_1_57_">
							<path fill="#435757" d="M286,846h-72l36-32L286,846z"/>
						</g>
					</g>
					<g transform="translate(250,950) scale(1) rotate(0)">
						<g id="shape_1_58_">
							<path fill="#435757" d="M205,955h90l-45,40L205,955z"/>
						</g>
					</g>
					<g transform="translate(250,950) scale(1) rotate(180)">
						<g id="shape_1_59_">
							<path fill="#435757" d="M295,945h-90l45-40L295,945z"/>
						</g>
					</g>
					<g transform="translate(350,50) scale(1) rotate(0)">
						<g id="shape_1_60_">
							<path fill="#435757" d="M305,55h90l-45,40L305,55z"/>
						</g>
					</g>
					<g transform="translate(350,50) scale(1) rotate(180)">
						<g id="shape_1_61_">
							<path fill="#435757" d="M395,45h-90l45-40L395,45z"/>
						</g>
					</g>
					<g transform="translate(350,150) scale(0.8) rotate(0)">
						<g id="shape_1_62_">
							<path fill="#435757" d="M314,154h72l-36,32L314,154z"/>
						</g>
					</g>
					<g transform="translate(350,150) scale(0.8) rotate(180)">
						<g id="shape_1_63_">
							<path fill="#435757" d="M386,146h-72l36-32L386,146z"/>
						</g>
					</g>
					<g transform="translate(350,250) scale(0.6) rotate(0)">
						<g id="shape_1_64_">
							<path fill="#435757" d="M323,253h54l-27,24L323,253z"/>
						</g>
					</g>
					<g transform="translate(350,250) scale(0.6) rotate(180)">
						<g id="shape_1_65_">
							<path fill="#435757" d="M377,247h-54l27-24L377,247z"/>
						</g>
					</g>
					<g transform="translate(350,350) scale(0.4) rotate(0)">
						<g id="shape_1_66_">
							<path fill="#435757" d="M332,352h36l-18,16L332,352z"/>
						</g>
					</g>
					<g transform="translate(350,350) scale(0.4) rotate(180)">
						<g id="shape_1_67_">
							<path fill="#435757" d="M368,348h-36l18-16L368,348z"/>
						</g>
					</g>
					<g transform="translate(350,450) scale(0.2) rotate(0)">
						<g id="shape_1_68_">
							<path fill="#435757" d="M341,451h18l-9,8L341,451z"/>
						</g>
					</g>
					<g transform="translate(350,450) scale(0.2) rotate(180)">
						<g id="shape_1_69_">
							<path fill="#435757" d="M359,449h-18l9-8L359,449z"/>
						</g>
					</g>
					<g transform="translate(350,550) scale(0.2) rotate(0)">
						<g id="shape_1_70_">
							<path fill="#435757" d="M341,551h18l-9,8L341,551z"/>
						</g>
					</g>
					<g transform="translate(350,550) scale(0.2) rotate(180)">
						<g id="shape_1_71_">
							<path fill="#435757" d="M359,549h-18l9-8L359,549z"/>
						</g>
					</g>
					<g transform="translate(350,650) scale(0.4) rotate(0)">
						<g id="shape_1_72_">
							<path fill="#435757" d="M332,652h36l-18,16L332,652z"/>
						</g>
					</g>
					<g transform="translate(350,650) scale(0.4) rotate(180)">
						<g id="shape_1_73_">
							<path fill="#435757" d="M368,648h-36l18-16L368,648z"/>
						</g>
					</g>
					<g transform="translate(350,750) scale(0.6) rotate(0)">
						<g id="shape_1_74_">
							<path fill="#435757" d="M323,753h54l-27,24L323,753z"/>
						</g>
					</g>
					<g transform="translate(350,750) scale(0.6) rotate(180)">
						<g id="shape_1_75_">
							<path fill="#435757" d="M377,747h-54l27-24L377,747z"/>
						</g>
					</g>
					<g transform="translate(350,850) scale(0.8) rotate(0)">
						<g id="shape_1_76_">
							<path fill="#435757" d="M314,854h72l-36,32L314,854z"/>
						</g>
					</g>
					<g transform="translate(350,850) scale(0.8) rotate(180)">
						<g id="shape_1_77_">
							<path fill="#435757" d="M386,846h-72l36-32L386,846z"/>
						</g>
					</g>
					<g transform="translate(350,950) scale(1) rotate(0)">
						<g id="shape_1_78_">
							<path fill="#435757" d="M305,955h90l-45,40L305,955z"/>
						</g>
					</g>
					<g transform="translate(350,950) scale(1) rotate(180)">
						<g id="shape_1_79_">
							<path fill="#435757" d="M395,945h-90l45-40L395,945z"/>
						</g>
					</g>
					<g transform="translate(450,50) scale(1) rotate(0)">
						<g id="shape_1_80_">
							<path fill="#435757" d="M405,55h90l-45,40L405,55z"/>
						</g>
					</g>
					<g transform="translate(450,50) scale(1) rotate(180)">
						<g id="shape_1_81_">
							<path fill="#435757" d="M495,45h-90l45-40L495,45z"/>
						</g>
					</g>
					<g transform="translate(450,150) scale(0.8) rotate(0)">
						<g id="shape_1_82_">
							<path fill="#435757" d="M414,154h72l-36,32L414,154z"/>
						</g>
					</g>
					<g transform="translate(450,150) scale(0.8) rotate(180)">
						<g id="shape_1_83_">
							<path fill="#435757" d="M486,146h-72l36-32L486,146z"/>
						</g>
					</g>
					<g transform="translate(450,250) scale(0.6) rotate(0)">
						<g id="shape_1_84_">
							<path fill="#435757" d="M423,253h54l-27,24L423,253z"/>
						</g>
					</g>
					<g transform="translate(450,250) scale(0.6) rotate(180)">
						<g id="shape_1_85_">
							<path fill="#435757" d="M477,247h-54l27-24L477,247z"/>
						</g>
					</g>
					<g transform="translate(450,350) scale(0.4) rotate(0)">
						<g id="shape_1_86_">
							<path fill="#435757" d="M432,352h36l-18,16L432,352z"/>
						</g>
					</g>
					<g transform="translate(450,350) scale(0.4) rotate(180)">
						<g id="shape_1_87_">
							<path fill="#435757" d="M468,348h-36l18-16L468,348z"/>
						</g>
					</g>
					<g transform="translate(450,450) scale(0.2) rotate(0)">
						<g id="shape_1_88_">
							<path fill="#435757" d="M441,451h18l-9,8L441,451z"/>
						</g>
					</g>
					<g transform="translate(450,450) scale(0.2) rotate(180)">
						<g id="shape_1_89_">
							<path fill="#435757" d="M459,449h-18l9-8L459,449z"/>
						</g>
					</g>
					<g transform="translate(450,550) scale(0.2) rotate(0)">
						<g id="shape_1_90_">
							<path fill="#435757" d="M441,551h18l-9,8L441,551z"/>
						</g>
					</g>
					<g transform="translate(450,550) scale(0.2) rotate(180)">
						<g id="shape_1_91_">
							<path fill="#435757" d="M459,549h-18l9-8L459,549z"/>
						</g>
					</g>
					<g transform="translate(450,650) scale(0.4) rotate(0)">
						<g id="shape_1_92_">
							<path fill="#435757" d="M432,652h36l-18,16L432,652z"/>
						</g>
					</g>
					<g transform="translate(450,650) scale(0.4) rotate(180)">
						<g id="shape_1_93_">
							<path fill="#435757" d="M468,648h-36l18-16L468,648z"/>
						</g>
					</g>
					<g transform="translate(450,750) scale(0.6) rotate(0)">
						<g id="shape_1_94_">
							<path fill="#435757" d="M423,753h54l-27,24L423,753z"/>
						</g>
					</g>
					<g transform="translate(450,750) scale(0.6) rotate(180)">
						<g id="shape_1_95_">
							<path fill="#435757" d="M477,747h-54l27-24L477,747z"/>
						</g>
					</g>
					<g transform="translate(450,850) scale(0.8) rotate(0)">
						<g id="shape_1_96_">
							<path fill="#435757" d="M414,854h72l-36,32L414,854z"/>
						</g>
					</g>
					<g transform="translate(450,850) scale(0.8) rotate(180)">
						<g id="shape_1_97_">
							<path fill="#435757" d="M486,846h-72l36-32L486,846z"/>
						</g>
					</g>
					<g transform="translate(450,950) scale(1) rotate(0)">
						<g id="shape_1_98_">
							<path fill="#435757" d="M405,955h90l-45,40L405,955z"/>
						</g>
					</g>
					<g transform="translate(450,950) scale(1) rotate(180)">
						<g id="shape_1_99_">
							<path fill="#435757" d="M495,945h-90l45-40L495,945z"/>
						</g>
					</g>
					<g transform="translate(550,50) scale(1) rotate(0)">
						<g id="shape_1_100_">
							<path fill="#435757" d="M505,55h90l-45,40L505,55z"/>
						</g>
					</g>
					<g transform="translate(550,50) scale(1) rotate(180)">
						<g id="shape_1_101_">
							<path fill="#435757" d="M595,45h-90l45-40L595,45z"/>
						</g>
					</g>
					<g transform="translate(550,150) scale(0.8) rotate(0)">
						<g id="shape_1_102_">
							<path fill="#435757" d="M514,154h72l-36,32L514,154z"/>
						</g>
					</g>
					<g transform="translate(550,150) scale(0.8) rotate(180)">
						<g id="shape_1_103_">
							<path fill="#435757" d="M586,146h-72l36-32L586,146z"/>
						</g>
					</g>
					<g transform="translate(550,250) scale(0.6) rotate(0)">
						<g id="shape_1_104_">
							<path fill="#435757" d="M523,253h54l-27,24L523,253z"/>
						</g>
					</g>
					<g transform="translate(550,250) scale(0.6) rotate(180)">
						<g id="shape_1_105_">
							<path fill="#435757" d="M577,247h-54l27-24L577,247z"/>
						</g>
					</g>
					<g transform="translate(550,350) scale(0.4) rotate(0)">
						<g id="shape_1_106_">
							<path fill="#435757" d="M532,352h36l-18,16L532,352z"/>
						</g>
					</g>
					<g transform="translate(550,350) scale(0.4) rotate(180)">
						<g id="shape_1_107_">
							<path fill="#435757" d="M568,348h-36l18-16L568,348z"/>
						</g>
					</g>
					<g transform="translate(550,450) scale(0.2) rotate(0)">
						<g id="shape_1_108_">
							<path fill="#435757" d="M541,451h18l-9,8L541,451z"/>
						</g>
					</g>
					<g transform="translate(550,450) scale(0.2) rotate(180)">
						<g id="shape_1_109_">
							<path fill="#435757" d="M559,449h-18l9-8L559,449z"/>
						</g>
					</g>
					<g transform="translate(550,550) scale(0.2) rotate(0)">
						<g id="shape_1_110_">
							<path fill="#435757" d="M541,551h18l-9,8L541,551z"/>
						</g>
					</g>
					<g transform="translate(550,550) scale(0.2) rotate(180)">
						<g id="shape_1_111_">
							<path fill="#435757" d="M559,549h-18l9-8L559,549z"/>
						</g>
					</g>
					<g transform="translate(550,650) scale(0.4) rotate(0)">
						<g id="shape_1_112_">
							<path fill="#435757" d="M532,652h36l-18,16L532,652z"/>
						</g>
					</g>
					<g transform="translate(550,650) scale(0.4) rotate(180)">
						<g id="shape_1_113_">
							<path fill="#435757" d="M568,648h-36l18-16L568,648z"/>
						</g>
					</g>
					<g transform="translate(550,750) scale(0.6) rotate(0)">
						<g id="shape_1_114_">
							<path fill="#435757" d="M523,753h54l-27,24L523,753z"/>
						</g>
					</g>
					<g transform="translate(550,750) scale(0.6) rotate(180)">
						<g id="shape_1_115_">
							<path fill="#435757" d="M577,747h-54l27-24L577,747z"/>
						</g>
					</g>
					<g transform="translate(550,850) scale(0.8) rotate(0)">
						<g id="shape_1_116_">
							<path fill="#435757" d="M514,854h72l-36,32L514,854z"/>
						</g>
					</g>
					<g transform="translate(550,850) scale(0.8) rotate(180)">
						<g id="shape_1_117_">
							<path fill="#435757" d="M586,846h-72l36-32L586,846z"/>
						</g>
					</g>
					<g transform="translate(550,950) scale(1) rotate(0)">
						<g id="shape_1_118_">
							<path fill="#435757" d="M505,955h90l-45,40L505,955z"/>
						</g>
					</g>
					<g transform="translate(550,950) scale(1) rotate(180)">
						<g id="shape_1_119_">
							<path fill="#435757" d="M595,945h-90l45-40L595,945z"/>
						</g>
					</g>
					<g transform="translate(650,50) scale(1) rotate(0)">
						<g id="shape_1_120_">
							<path fill="#435757" d="M605,55h90l-45,40L605,55z"/>
						</g>
					</g>
					<g transform="translate(650,50) scale(1) rotate(180)">
						<g id="shape_1_121_">
							<path fill="#435757" d="M695,45h-90l45-40L695,45z"/>
						</g>
					</g>
					<g transform="translate(650,150) scale(0.8) rotate(0)">
						<g id="shape_1_122_">
							<path fill="#435757" d="M614,154h72l-36,32L614,154z"/>
						</g>
					</g>
					<g transform="translate(650,150) scale(0.8) rotate(180)">
						<g id="shape_1_123_">
							<path fill="#435757" d="M686,146h-72l36-32L686,146z"/>
						</g>
					</g>
					<g transform="translate(650,250) scale(0.6) rotate(0)">
						<g id="shape_1_124_">
							<path fill="#435757" d="M623,253h54l-27,24L623,253z"/>
						</g>
					</g>
					<g transform="translate(650,250) scale(0.6) rotate(180)">
						<g id="shape_1_125_">
							<path fill="#435757" d="M677,247h-54l27-24L677,247z"/>
						</g>
					</g>
					<g transform="translate(650,350) scale(0.4) rotate(0)">
						<g id="shape_1_126_">
							<path fill="#435757" d="M632,352h36l-18,16L632,352z"/>
						</g>
					</g>
					<g transform="translate(650,350) scale(0.4) rotate(180)">
						<g id="shape_1_127_">
							<path fill="#435757" d="M668,348h-36l18-16L668,348z"/>
						</g>
					</g>
					<g transform="translate(650,450) scale(0.2) rotate(0)">
						<g id="shape_1_128_">
							<path fill="#435757" d="M641,451h18l-9,8L641,451z"/>
						</g>
					</g>
					<g transform="translate(650,450) scale(0.2) rotate(180)">
						<g id="shape_1_129_">
							<path fill="#435757" d="M659,449h-18l9-8L659,449z"/>
						</g>
					</g>
					<g transform="translate(650,550) scale(0.2) rotate(0)">
						<g id="shape_1_130_">
							<path fill="#435757" d="M641,551h18l-9,8L641,551z"/>
						</g>
					</g>
					<g transform="translate(650,550) scale(0.2) rotate(180)">
						<g id="shape_1_131_">
							<path fill="#435757" d="M659,549h-18l9-8L659,549z"/>
						</g>
					</g>
					<g transform="translate(650,650) scale(0.4) rotate(0)">
						<g id="shape_1_132_">
							<path fill="#435757" d="M632,652h36l-18,16L632,652z"/>
						</g>
					</g>
					<g transform="translate(650,650) scale(0.4) rotate(180)">
						<g id="shape_1_133_">
							<path fill="#435757" d="M668,648h-36l18-16L668,648z"/>
						</g>
					</g>
					<g transform="translate(650,750) scale(0.6) rotate(0)">
						<g id="shape_1_134_">
							<path fill="#435757" d="M623,753h54l-27,24L623,753z"/>
						</g>
					</g>
					<g transform="translate(650,750) scale(0.6) rotate(180)">
						<g id="shape_1_135_">
							<path fill="#435757" d="M677,747h-54l27-24L677,747z"/>
						</g>
					</g>
					<g transform="translate(650,850) scale(0.8) rotate(0)">
						<g id="shape_1_136_">
							<path fill="#435757" d="M614,854h72l-36,32L614,854z"/>
						</g>
					</g>
					<g transform="translate(650,850) scale(0.8) rotate(180)">
						<g id="shape_1_137_">
							<path fill="#435757" d="M686,846h-72l36-32L686,846z"/>
						</g>
					</g>
					<g transform="translate(650,950) scale(1) rotate(0)">
						<g id="shape_1_138_">
							<path fill="#435757" d="M605,955h90l-45,40L605,955z"/>
						</g>
					</g>
					<g transform="translate(650,950) scale(1) rotate(180)">
						<g id="shape_1_139_">
							<path fill="#435757" d="M695,945h-90l45-40L695,945z"/>
						</g>
					</g>
					<g transform="translate(750,50) scale(1) rotate(0)">
						<g id="shape_1_140_">
							<path fill="#435757" d="M705,55h90l-45,40L705,55z"/>
						</g>
					</g>
					<g transform="translate(750,50) scale(1) rotate(180)">
						<g id="shape_1_141_">
							<path fill="#435757" d="M795,45h-90l45-40L795,45z"/>
						</g>
					</g>
					<g transform="translate(750,150) scale(0.8) rotate(0)">
						<g id="shape_1_142_">
							<path fill="#435757" d="M714,154h72l-36,32L714,154z"/>
						</g>
					</g>
					<g transform="translate(750,150) scale(0.8) rotate(180)">
						<g id="shape_1_143_">
							<path fill="#435757" d="M786,146h-72l36-32L786,146z"/>
						</g>
					</g>
					<g transform="translate(750,250) scale(0.6) rotate(0)">
						<g id="shape_1_144_">
							<path fill="#435757" d="M723,253h54l-27,24L723,253z"/>
						</g>
					</g>
					<g transform="translate(750,250) scale(0.6) rotate(180)">
						<g id="shape_1_145_">
							<path fill="#435757" d="M777,247h-54l27-24L777,247z"/>
						</g>
					</g>
					<g transform="translate(750,350) scale(0.4) rotate(0)">
						<g id="shape_1_146_">
							<path fill="#435757" d="M732,352h36l-18,16L732,352z"/>
						</g>
					</g>
					<g transform="translate(750,350) scale(0.4) rotate(180)">
						<g id="shape_1_147_">
							<path fill="#435757" d="M768,348h-36l18-16L768,348z"/>
						</g>
					</g>
					<g transform="translate(750,450) scale(0.2) rotate(0)">
						<g id="shape_1_148_">
							<path fill="#435757" d="M741,451h18l-9,8L741,451z"/>
						</g>
					</g>
					<g transform="translate(750,450) scale(0.2) rotate(180)">
						<g id="shape_1_149_">
							<path fill="#435757" d="M759,449h-18l9-8L759,449z"/>
						</g>
					</g>
					<g transform="translate(750,550) scale(0.2) rotate(0)">
						<g id="shape_1_150_">
							<path fill="#435757" d="M741,551h18l-9,8L741,551z"/>
						</g>
					</g>
					<g transform="translate(750,550) scale(0.2) rotate(180)">
						<g id="shape_1_151_">
							<path fill="#435757" d="M759,549h-18l9-8L759,549z"/>
						</g>
					</g>
					<g transform="translate(750,650) scale(0.4) rotate(0)">
						<g id="shape_1_152_">
							<path fill="#435757" d="M732,652h36l-18,16L732,652z"/>
						</g>
					</g>
					<g transform="translate(750,650) scale(0.4) rotate(180)">
						<g id="shape_1_153_">
							<path fill="#435757" d="M768,648h-36l18-16L768,648z"/>
						</g>
					</g>
					<g transform="translate(750,750) scale(0.6) rotate(0)">
						<g id="shape_1_154_">
							<path fill="#435757" d="M723,753h54l-27,24L723,753z"/>
						</g>
					</g>
					<g transform="translate(750,750) scale(0.6) rotate(180)">
						<g id="shape_1_155_">
							<path fill="#435757" d="M777,747h-54l27-24L777,747z"/>
						</g>
					</g>
					<g transform="translate(750,850) scale(0.8) rotate(0)">
						<g id="shape_1_156_">
							<path fill="#435757" d="M714,854h72l-36,32L714,854z"/>
						</g>
					</g>
					<g transform="translate(750,850) scale(0.8) rotate(180)">
						<g id="shape_1_157_">
							<path fill="#435757" d="M786,846h-72l36-32L786,846z"/>
						</g>
					</g>
					<g transform="translate(750,950) scale(1) rotate(0)">
						<g id="shape_1_158_">
							<path fill="#435757" d="M705,955h90l-45,40L705,955z"/>
						</g>
					</g>
					<g transform="translate(750,950) scale(1) rotate(180)">
						<g id="shape_1_159_">
							<path fill="#435757" d="M795,945h-90l45-40L795,945z"/>
						</g>
					</g>
					<g transform="translate(850,50) scale(1) rotate(0)">
						<g id="shape_1_160_">
							<path fill="#435757" d="M805,55h90l-45,40L805,55z"/>
						</g>
					</g>
					<g transform="translate(850,50) scale(1) rotate(180)">
						<g id="shape_1_161_">
							<path fill="#435757" d="M895,45h-90l45-40L895,45z"/>
						</g>
					</g>
					<g transform="translate(850,150) scale(0.8) rotate(0)">
						<g id="shape_1_162_">
							<path fill="#435757" d="M814,154h72l-36,32L814,154z"/>
						</g>
					</g>
					<g transform="translate(850,150) scale(0.8) rotate(180)">
						<g id="shape_1_163_">
							<path fill="#435757" d="M886,146h-72l36-32L886,146z"/>
						</g>
					</g>
					<g transform="translate(850,250) scale(0.6) rotate(0)">
						<g id="shape_1_164_">
							<path fill="#435757" d="M823,253h54l-27,24L823,253z"/>
						</g>
					</g>
					<g transform="translate(850,250) scale(0.6) rotate(180)">
						<g id="shape_1_165_">
							<path fill="#435757" d="M877,247h-54l27-24L877,247z"/>
						</g>
					</g>
					<g transform="translate(850,350) scale(0.4) rotate(0)">
						<g id="shape_1_166_">
							<path fill="#435757" d="M832,352h36l-18,16L832,352z"/>
						</g>
					</g>
					<g transform="translate(850,350) scale(0.4) rotate(180)">
						<g id="shape_1_167_">
							<path fill="#435757" d="M868,348h-36l18-16L868,348z"/>
						</g>
					</g>
					<g transform="translate(850,450) scale(0.2) rotate(0)">
						<g id="shape_1_168_">
							<path fill="#435757" d="M841,451h18l-9,8L841,451z"/>
						</g>
					</g>
					<g transform="translate(850,450) scale(0.2) rotate(180)">
						<g id="shape_1_169_">
							<path fill="#435757" d="M859,449h-18l9-8L859,449z"/>
						</g>
					</g>
					<g transform="translate(850,550) scale(0.2) rotate(0)">
						<g id="shape_1_170_">
							<path fill="#435757" d="M841,551h18l-9,8L841,551z"/>
						</g>
					</g>
					<g transform="translate(850,550) scale(0.2) rotate(180)">
						<g id="shape_1_171_">
							<path fill="#435757" d="M859,549h-18l9-8L859,549z"/>
						</g>
					</g>
					<g transform="translate(850,650) scale(0.4) rotate(0)">
						<g id="shape_1_172_">
							<path fill="#435757" d="M832,652h36l-18,16L832,652z"/>
						</g>
					</g>
					<g transform="translate(850,650) scale(0.4) rotate(180)">
						<g id="shape_1_173_">
							<path fill="#435757" d="M868,648h-36l18-16L868,648z"/>
						</g>
					</g>
					<g transform="translate(850,750) scale(0.6) rotate(0)">
						<g id="shape_1_174_">
							<path fill="#435757" d="M823,753h54l-27,24L823,753z"/>
						</g>
					</g>
					<g transform="translate(850,750) scale(0.6) rotate(180)">
						<g id="shape_1_175_">
							<path fill="#435757" d="M877,747h-54l27-24L877,747z"/>
						</g>
					</g>
					<g transform="translate(850,850) scale(0.8) rotate(0)">
						<g id="shape_1_176_">
							<path fill="#435757" d="M814,854h72l-36,32L814,854z"/>
						</g>
					</g>
					<g transform="translate(850,850) scale(0.8) rotate(180)">
						<g id="shape_1_177_">
							<path fill="#435757" d="M886,846h-72l36-32L886,846z"/>
						</g>
					</g>
					<g transform="translate(850,950) scale(1) rotate(0)">
						<g id="shape_1_178_">
							<path fill="#435757" d="M805,955h90l-45,40L805,955z"/>
						</g>
					</g>
					<g transform="translate(850,950) scale(1) rotate(180)">
						<g id="shape_1_179_">
							<path fill="#435757" d="M895,945h-90l45-40L895,945z"/>
						</g>
					</g>
					<g transform="translate(950,50) scale(1) rotate(0)">
						<g id="shape_1_180_">
							<path fill="#435757" d="M905,55h90l-45,40L905,55z"/>
						</g>
					</g>
					<g transform="translate(950,50) scale(1) rotate(180)">
						<g id="shape_1_181_">
							<path fill="#435757" d="M995,45h-90l45-40L995,45z"/>
						</g>
					</g>
					<g transform="translate(950,150) scale(0.8) rotate(0)">
						<g id="shape_1_182_">
							<path fill="#435757" d="M914,154h72l-36,32L914,154z"/>
						</g>
					</g>
					<g transform="translate(950,150) scale(0.8) rotate(180)">
						<g id="shape_1_183_">
							<path fill="#435757" d="M986,146h-72l36-32L986,146z"/>
						</g>
					</g>
					<g transform="translate(950,250) scale(0.6) rotate(0)">
						<g id="shape_1_184_">
							<path fill="#435757" d="M923,253h54l-27,24L923,253z"/>
						</g>
					</g>
					<g transform="translate(950,250) scale(0.6) rotate(180)">
						<g id="shape_1_185_">
							<path fill="#435757" d="M977,247h-54l27-24L977,247z"/>
						</g>
					</g>
					<g transform="translate(950,350) scale(0.4) rotate(0)">
						<g id="shape_1_186_">
							<path fill="#435757" d="M932,352h36l-18,16L932,352z"/>
						</g>
					</g>
					<g transform="translate(950,350) scale(0.4) rotate(180)">
						<g id="shape_1_187_">
							<path fill="#435757" d="M968,348h-36l18-16L968,348z"/>
						</g>
					</g>
					<g transform="translate(950,450) scale(0.2) rotate(0)">
						<g id="shape_1_188_">
							<path fill="#435757" d="M941,451h18l-9,8L941,451z"/>
						</g>
					</g>
					<g transform="translate(950,450) scale(0.2) rotate(180)">
						<g id="shape_1_189_">
							<path fill="#435757" d="M959,449h-18l9-8L959,449z"/>
						</g>
					</g>
					<g transform="translate(950,550) scale(0.2) rotate(0)">
						<g id="shape_1_190_">
							<path fill="#435757" d="M941,551h18l-9,8L941,551z"/>
						</g>
					</g>
					<g transform="translate(950,550) scale(0.2) rotate(180)">
						<g id="shape_1_191_">
							<path fill="#435757" d="M959,549h-18l9-8L959,549z"/>
						</g>
					</g>
					<g transform="translate(950,650) scale(0.4) rotate(0)">
						<g id="shape_1_192_">
							<path fill="#435757" d="M932,652h36l-18,16L932,652z"/>
						</g>
					</g>
					<g transform="translate(950,650) scale(0.4) rotate(180)">
						<g id="shape_1_193_">
							<path fill="#435757" d="M968,648h-36l18-16L968,648z"/>
						</g>
					</g>
					<g transform="translate(950,750) scale(0.6) rotate(0)">
						<g id="shape_1_194_">
							<path fill="#435757" d="M923,753h54l-27,24L923,753z"/>
						</g>
					</g>
					<g transform="translate(950,750) scale(0.6) rotate(180)">
						<g id="shape_1_195_">
							<path fill="#435757" d="M977,747h-54l27-24L977,747z"/>
						</g>
					</g>
					<g transform="translate(950,850) scale(0.8) rotate(0)">
						<g id="shape_1_196_">
							<path fill="#435757" d="M914,854h72l-36,32L914,854z"/>
						</g>
					</g>
					<g transform="translate(950,850) scale(0.8) rotate(180)">
						<g id="shape_1_197_">
							<path fill="#435757" d="M986,846h-72l36-32L986,846z"/>
						</g>
					</g>
					<g transform="translate(950,950) scale(1) rotate(0)">
						<g id="shape_1_198_">
							<path fill="#435757" d="M905,955h90l-45,40L905,955z"/>
						</g>
					</g>
					<g transform="translate(950,950) scale(1) rotate(180)">
						<g id="shape_1_199_">
							<path fill="#435757" d="M995,945h-90l45-40L995,945z"/>
						</g>
					</g>
					<g transform="translate(0,0) scale(1) rotate(0)">
						<g id="shape_1_200_">
							<path fill="#435757" d="M-45,5h90L0,45L-45,5z"/>
						</g>
					</g>
					<g transform="translate(0,0) scale(1) rotate(180)">
						<g id="shape_1_201_">
							<path fill="#435757" d="M45-5h-90L0-45L45-5z"/>
						</g>
					</g>
					<g transform="translate(0,100) scale(0.9) rotate(0)">
						<g id="shape_1_202_">
							<path fill="#435757" d="M-40.5,104.5h81L0,140.5L-40.5,104.5z"/>
						</g>
					</g>
					<g transform="translate(0,100) scale(0.9) rotate(180)">
						<g id="shape_1_203_">
							<path fill="#435757" d="M40.5,95.5h-81L0,59.5L40.5,95.5z"/>
						</g>
					</g>
					<g transform="translate(0,200) scale(0.7) rotate(0)">
						<g id="shape_1_204_">
							<path fill="#435757" d="M-31.5,203.5h63L0,231.5L-31.5,203.5z"/>
						</g>
					</g>
					<g transform="translate(0,200) scale(0.7) rotate(180)">
						<g id="shape_1_205_">
							<path fill="#435757" d="M31.5,196.5h-63l31.5-28L31.5,196.5z"/>
						</g>
					</g>
					<g transform="translate(0,300) scale(0.5) rotate(0)">
						<g id="shape_1_206_">
							<path fill="#435757" d="M-22.5,302.5h45L0,322.5L-22.5,302.5z"/>
						</g>
					</g>
					<g transform="translate(0,300) scale(0.5) rotate(180)">
						<g id="shape_1_207_">
							<path fill="#435757" d="M22.5,297.5h-45l22.5-20L22.5,297.5z"/>
						</g>
					</g>
					<g transform="translate(0,400) scale(0.3) rotate(0)">
						<g id="shape_1_208_">
							<path fill="#435757" d="M-13.5,401.5h27L0,413.5L-13.5,401.5z"/>
						</g>
					</g>
					<g transform="translate(0,400) scale(0.3) rotate(180)">
						<g id="shape_1_209_">
							<path fill="#435757" d="M13.5,398.5h-27l13.5-12L13.5,398.5z"/>
						</g>
					</g>
					<g transform="translate(0,500) scale(0.2) rotate(0)">
						<g id="shape_1_210_">
							<path fill="#435757" d="M-9,501H9l-9,8L-9,501z"/>
						</g>
					</g>
					<g transform="translate(0,500) scale(0.2) rotate(180)">
						<g id="shape_1_211_">
							<path fill="#435757" d="M9,499H-9l9-8L9,499z"/>
						</g>
					</g>
					<g transform="translate(0,600) scale(0.3) rotate(0)">
						<g id="shape_1_212_">
							<path fill="#435757" d="M-13.5,601.5h27L0,613.5L-13.5,601.5z"/>
						</g>
					</g>
					<g transform="translate(0,600) scale(0.3) rotate(180)">
						<g id="shape_1_213_">
							<path fill="#435757" d="M13.5,598.5h-27l13.5-12L13.5,598.5z"/>
						</g>
					</g>
					<g transform="translate(0,700) scale(0.5) rotate(0)">
						<g id="shape_1_214_">
							<path fill="#435757" d="M-22.5,702.5h45L0,722.5L-22.5,702.5z"/>
						</g>
					</g>
					<g transform="translate(0,700) scale(0.5) rotate(180)">
						<g id="shape_1_215_">
							<path fill="#435757" d="M22.5,697.5h-45l22.5-20L22.5,697.5z"/>
						</g>
					</g>
					<g transform="translate(0,800) scale(0.7) rotate(0)">
						<g id="shape_1_216_">
							<path fill="#435757" d="M-31.5,803.5h63L0,831.5L-31.5,803.5z"/>
						</g>
					</g>
					<g transform="translate(0,800) scale(0.7) rotate(180)">
						<g id="shape_1_217_">
							<path fill="#435757" d="M31.5,796.5h-63l31.5-28L31.5,796.5z"/>
						</g>
					</g>
					<g transform="translate(0,900) scale(0.9) rotate(0)">
						<g id="shape_1_218_">
							<path fill="#435757" d="M-40.5,904.5h81L0,940.5L-40.5,904.5z"/>
						</g>
					</g>
					<g transform="translate(0,900) scale(0.9) rotate(180)">
						<g id="shape_1_219_">
							<path fill="#435757" d="M40.5,895.5h-81l40.5-36L40.5,895.5z"/>
						</g>
					</g>
					<g transform="translate(0,1000) scale(1) rotate(0)">
						<g id="shape_1_220_">
							<path fill="#435757" d="M-45,1005h90l-45,40L-45,1005z"/>
						</g>
					</g>
					<g transform="translate(0,1000) scale(1) rotate(180)">
						<g id="shape_1_221_">
							<path fill="#435757" d="M45,995h-90l45-40L45,995z"/>
						</g>
					</g>
					<g transform="translate(100,0) scale(1) rotate(0)">
						<g id="shape_1_222_">
							<path fill="#435757" d="M55,5h90l-45,40L55,5z"/>
						</g>
					</g>
					<g transform="translate(100,0) scale(1) rotate(180)">
						<g id="shape_1_223_">
							<path fill="#435757" d="M145-5H55l45-40L145-5z"/>
						</g>
					</g>
					<g transform="translate(100,100) scale(0.9) rotate(0)">
						<g id="shape_1_224_">
							<path fill="#435757" d="M59.5,104.5h81l-40.5,36L59.5,104.5z"/>
						</g>
					</g>
					<g transform="translate(100,100) scale(0.9) rotate(180)">
						<g id="shape_1_225_">
							<path fill="#435757" d="M140.5,95.5h-81l40.5-36L140.5,95.5z"/>
						</g>
					</g>
					<g transform="translate(100,200) scale(0.7) rotate(0)">
						<g id="shape_1_226_">
							<path fill="#435757" d="M68.5,203.5h63l-31.5,28L68.5,203.5z"/>
						</g>
					</g>
					<g transform="translate(100,200) scale(0.7) rotate(180)">
						<g id="shape_1_227_">
							<path fill="#435757" d="M131.5,196.5h-63l31.5-28L131.5,196.5z"/>
						</g>
					</g>
					<g transform="translate(100,300) scale(0.5) rotate(0)">
						<g id="shape_1_228_">
							<path fill="#435757" d="M77.5,302.5h45l-22.5,20L77.5,302.5z"/>
						</g>
					</g>
					<g transform="translate(100,300) scale(0.5) rotate(180)">
						<g id="shape_1_229_">
							<path fill="#435757" d="M122.5,297.5h-45l22.5-20L122.5,297.5z"/>
						</g>
					</g>
					<g transform="translate(100,400) scale(0.3) rotate(0)">
						<g id="shape_1_230_">
							<path fill="#435757" d="M86.5,401.5h27l-13.5,12L86.5,401.5z"/>
						</g>
					</g>
					<g transform="translate(100,400) scale(0.3) rotate(180)">
						<g id="shape_1_231_">
							<path fill="#435757" d="M113.5,398.5h-27l13.5-12L113.5,398.5z"/>
						</g>
					</g>
					<g transform="translate(100,500) scale(0.2) rotate(0)">
						<g id="shape_1_232_">
							<path fill="#435757" d="M91,501h18l-9,8L91,501z"/>
						</g>
					</g>
					<g transform="translate(100,500) scale(0.2) rotate(180)">
						<g id="shape_1_233_">
							<path fill="#435757" d="M109,499H91l9-8L109,499z"/>
						</g>
					</g>
					<g transform="translate(100,600) scale(0.3) rotate(0)">
						<g id="shape_1_234_">
							<path fill="#435757" d="M86.5,601.5h27l-13.5,12L86.5,601.5z"/>
						</g>
					</g>
					<g transform="translate(100,600) scale(0.3) rotate(180)">
						<g id="shape_1_235_">
							<path fill="#435757" d="M113.5,598.5h-27l13.5-12L113.5,598.5z"/>
						</g>
					</g>
					<g transform="translate(100,700) scale(0.5) rotate(0)">
						<g id="shape_1_236_">
							<path fill="#435757" d="M77.5,702.5h45l-22.5,20L77.5,702.5z"/>
						</g>
					</g>
					<g transform="translate(100,700) scale(0.5) rotate(180)">
						<g id="shape_1_237_">
							<path fill="#435757" d="M122.5,697.5h-45l22.5-20L122.5,697.5z"/>
						</g>
					</g>
					<g transform="translate(100,800) scale(0.7) rotate(0)">
						<g id="shape_1_238_">
							<path fill="#435757" d="M68.5,803.5h63l-31.5,28L68.5,803.5z"/>
						</g>
					</g>
					<g transform="translate(100,800) scale(0.7) rotate(180)">
						<g id="shape_1_239_">
							<path fill="#435757" d="M131.5,796.5h-63l31.5-28L131.5,796.5z"/>
						</g>
					</g>
					<g transform="translate(100,900) scale(0.9) rotate(0)">
						<g id="shape_1_240_">
							<path fill="#435757" d="M59.5,904.5h81l-40.5,36L59.5,904.5z"/>
						</g>
					</g>
					<g transform="translate(100,900) scale(0.9) rotate(180)">
						<g id="shape_1_241_">
							<path fill="#435757" d="M140.5,895.5h-81l40.5-36L140.5,895.5z"/>
						</g>
					</g>
					<g transform="translate(100,1000) scale(1) rotate(0)">
						<g id="shape_1_242_">
							<path fill="#435757" d="M55,1005h90l-45,40L55,1005z"/>
						</g>
					</g>
					<g transform="translate(100,1000) scale(1) rotate(180)">
						<g id="shape_1_243_">
							<path fill="#435757" d="M145,995H55l45-40L145,995z"/>
						</g>
					</g>
					<g transform="translate(200,0) scale(1) rotate(0)">
						<g id="shape_1_244_">
							<path fill="#435757" d="M155,5h90l-45,40L155,5z"/>
						</g>
					</g>
					<g transform="translate(200,0) scale(1) rotate(180)">
						<g id="shape_1_245_">
							<path fill="#435757" d="M245-5h-90l45-40L245-5z"/>
						</g>
					</g>
					<g transform="translate(200,100) scale(0.9) rotate(0)">
						<g id="shape_1_246_">
							<path fill="#435757" d="M159.5,104.5h81l-40.5,36L159.5,104.5z"/>
						</g>
					</g>
					<g transform="translate(200,100) scale(0.9) rotate(180)">
						<g id="shape_1_247_">
							<path fill="#435757" d="M240.5,95.5h-81l40.5-36L240.5,95.5z"/>
						</g>
					</g>
					<g transform="translate(200,200) scale(0.7) rotate(0)">
						<g id="shape_1_248_">
							<path fill="#435757" d="M168.5,203.5h63l-31.5,28L168.5,203.5z"/>
						</g>
					</g>
					<g transform="translate(200,200) scale(0.7) rotate(180)">
						<g id="shape_1_249_">
							<path fill="#435757" d="M231.5,196.5h-63l31.5-28L231.5,196.5z"/>
						</g>
					</g>
					<g transform="translate(200,300) scale(0.5) rotate(0)">
						<g id="shape_1_250_">
							<path fill="#435757" d="M177.5,302.5h45l-22.5,20L177.5,302.5z"/>
						</g>
					</g>
					<g transform="translate(200,300) scale(0.5) rotate(180)">
						<g id="shape_1_251_">
							<path fill="#435757" d="M222.5,297.5h-45l22.5-20L222.5,297.5z"/>
						</g>
					</g>
					<g transform="translate(200,400) scale(0.3) rotate(0)">
						<g id="shape_1_252_">
							<path fill="#435757" d="M186.5,401.5h27l-13.5,12L186.5,401.5z"/>
						</g>
					</g>
					<g transform="translate(200,400) scale(0.3) rotate(180)">
						<g id="shape_1_253_">
							<path fill="#435757" d="M213.5,398.5h-27l13.5-12L213.5,398.5z"/>
						</g>
					</g>
					<g transform="translate(200,500) scale(0.2) rotate(0)">
						<g id="shape_1_254_">
							<path fill="#435757" d="M191,501h18l-9,8L191,501z"/>
						</g>
					</g>
					<g transform="translate(200,500) scale(0.2) rotate(180)">
						<g id="shape_1_255_">
							<path fill="#435757" d="M209,499h-18l9-8L209,499z"/>
						</g>
					</g>
					<g transform="translate(200,600) scale(0.3) rotate(0)">
						<g id="shape_1_256_">
							<path fill="#435757" d="M186.5,601.5h27l-13.5,12L186.5,601.5z"/>
						</g>
					</g>
					<g transform="translate(200,600) scale(0.3) rotate(180)">
						<g id="shape_1_257_">
							<path fill="#435757" d="M213.5,598.5h-27l13.5-12L213.5,598.5z"/>
						</g>
					</g>
					<g transform="translate(200,700) scale(0.5) rotate(0)">
						<g id="shape_1_258_">
							<path fill="#435757" d="M177.5,702.5h45l-22.5,20L177.5,702.5z"/>
						</g>
					</g>
					<g transform="translate(200,700) scale(0.5) rotate(180)">
						<g id="shape_1_259_">
							<path fill="#435757" d="M222.5,697.5h-45l22.5-20L222.5,697.5z"/>
						</g>
					</g>
					<g transform="translate(200,800) scale(0.7) rotate(0)">
						<g id="shape_1_260_">
							<path fill="#435757" d="M168.5,803.5h63l-31.5,28L168.5,803.5z"/>
						</g>
					</g>
					<g transform="translate(200,800) scale(0.7) rotate(180)">
						<g id="shape_1_261_">
							<path fill="#435757" d="M231.5,796.5h-63l31.5-28L231.5,796.5z"/>
						</g>
					</g>
					<g transform="translate(200,900) scale(0.9) rotate(0)">
						<g id="shape_1_262_">
							<path fill="#435757" d="M159.5,904.5h81l-40.5,36L159.5,904.5z"/>
						</g>
					</g>
					<g transform="translate(200,900) scale(0.9) rotate(180)">
						<g id="shape_1_263_">
							<path fill="#435757" d="M240.5,895.5h-81l40.5-36L240.5,895.5z"/>
						</g>
					</g>
					<g transform="translate(200,1000) scale(1) rotate(0)">
						<g id="shape_1_264_">
							<path fill="#435757" d="M155,1005h90l-45,40L155,1005z"/>
						</g>
					</g>
					<g transform="translate(200,1000) scale(1) rotate(180)">
						<g id="shape_1_265_">
							<path fill="#435757" d="M245,995h-90l45-40L245,995z"/>
						</g>
					</g>
					<g transform="translate(300,0) scale(1) rotate(0)">
						<g id="shape_1_266_">
							<path fill="#435757" d="M255,5h90l-45,40L255,5z"/>
						</g>
					</g>
					<g transform="translate(300,0) scale(1) rotate(180)">
						<g id="shape_1_267_">
							<path fill="#435757" d="M345-5h-90l45-40L345-5z"/>
						</g>
					</g>
					<g transform="translate(300,100) scale(0.9) rotate(0)">
						<g id="shape_1_268_">
							<path fill="#435757" d="M259.5,104.5h81l-40.5,36L259.5,104.5z"/>
						</g>
					</g>
					<g transform="translate(300,100) scale(0.9) rotate(180)">
						<g id="shape_1_269_">
							<path fill="#435757" d="M340.5,95.5h-81l40.5-36L340.5,95.5z"/>
						</g>
					</g>
					<g transform="translate(300,200) scale(0.7) rotate(0)">
						<g id="shape_1_270_">
							<path fill="#435757" d="M268.5,203.5h63l-31.5,28L268.5,203.5z"/>
						</g>
					</g>
					<g transform="translate(300,200) scale(0.7) rotate(180)">
						<g id="shape_1_271_">
							<path fill="#435757" d="M331.5,196.5h-63l31.5-28L331.5,196.5z"/>
						</g>
					</g>
					<g transform="translate(300,300) scale(0.5) rotate(0)">
						<g id="shape_1_272_">
							<path fill="#435757" d="M277.5,302.5h45l-22.5,20L277.5,302.5z"/>
						</g>
					</g>
					<g transform="translate(300,300) scale(0.5) rotate(180)">
						<g id="shape_1_273_">
							<path fill="#435757" d="M322.5,297.5h-45l22.5-20L322.5,297.5z"/>
						</g>
					</g>
					<g transform="translate(300,400) scale(0.3) rotate(0)">
						<g id="shape_1_274_">
							<path fill="#435757" d="M286.5,401.5h27l-13.5,12L286.5,401.5z"/>
						</g>
					</g>
					<g transform="translate(300,400) scale(0.3) rotate(180)">
						<g id="shape_1_275_">
							<path fill="#435757" d="M313.5,398.5h-27l13.5-12L313.5,398.5z"/>
						</g>
					</g>
					<g transform="translate(300,500) scale(0.2) rotate(0)">
						<g id="shape_1_276_">
							<path fill="#435757" d="M291,501h18l-9,8L291,501z"/>
						</g>
					</g>
					<g transform="translate(300,500) scale(0.2) rotate(180)">
						<g id="shape_1_277_">
							<path fill="#435757" d="M309,499h-18l9-8L309,499z"/>
						</g>
					</g>
					<g transform="translate(300,600) scale(0.3) rotate(0)">
						<g id="shape_1_278_">
							<path fill="#435757" d="M286.5,601.5h27l-13.5,12L286.5,601.5z"/>
						</g>
					</g>
					<g transform="translate(300,600) scale(0.3) rotate(180)">
						<g id="shape_1_279_">
							<path fill="#435757" d="M313.5,598.5h-27l13.5-12L313.5,598.5z"/>
						</g>
					</g>
					<g transform="translate(300,700) scale(0.5) rotate(0)">
						<g id="shape_1_280_">
							<path fill="#435757" d="M277.5,702.5h45l-22.5,20L277.5,702.5z"/>
						</g>
					</g>
					<g transform="translate(300,700) scale(0.5) rotate(180)">
						<g id="shape_1_281_">
							<path fill="#435757" d="M322.5,697.5h-45l22.5-20L322.5,697.5z"/>
						</g>
					</g>
					<g transform="translate(300,800) scale(0.7) rotate(0)">
						<g id="shape_1_282_">
							<path fill="#435757" d="M268.5,803.5h63l-31.5,28L268.5,803.5z"/>
						</g>
					</g>
					<g transform="translate(300,800) scale(0.7) rotate(180)">
						<g id="shape_1_283_">
							<path fill="#435757" d="M331.5,796.5h-63l31.5-28L331.5,796.5z"/>
						</g>
					</g>
					<g transform="translate(300,900) scale(0.9) rotate(0)">
						<g id="shape_1_284_">
							<path fill="#435757" d="M259.5,904.5h81l-40.5,36L259.5,904.5z"/>
						</g>
					</g>
					<g transform="translate(300,900) scale(0.9) rotate(180)">
						<g id="shape_1_285_">
							<path fill="#435757" d="M340.5,895.5h-81l40.5-36L340.5,895.5z"/>
						</g>
					</g>
					<g transform="translate(300,1000) scale(1) rotate(0)">
						<g id="shape_1_286_">
							<path fill="#435757" d="M255,1005h90l-45,40L255,1005z"/>
						</g>
					</g>
					<g transform="translate(300,1000) scale(1) rotate(180)">
						<g id="shape_1_287_">
							<path fill="#435757" d="M345,995h-90l45-40L345,995z"/>
						</g>
					</g>
					<g transform="translate(400,0) scale(1) rotate(0)">
						<g id="shape_1_288_">
							<path fill="#435757" d="M355,5h90l-45,40L355,5z"/>
						</g>
					</g>
					<g transform="translate(400,0) scale(1) rotate(180)">
						<g id="shape_1_289_">
							<path fill="#435757" d="M445-5h-90l45-40L445-5z"/>
						</g>
					</g>
					<g transform="translate(400,100) scale(0.9) rotate(0)">
						<g id="shape_1_290_">
							<path fill="#435757" d="M359.5,104.5h81l-40.5,36L359.5,104.5z"/>
						</g>
					</g>
					<g transform="translate(400,100) scale(0.9) rotate(180)">
						<g id="shape_1_291_">
							<path fill="#435757" d="M440.5,95.5h-81l40.5-36L440.5,95.5z"/>
						</g>
					</g>
					<g transform="translate(400,200) scale(0.7) rotate(0)">
						<g id="shape_1_292_">
							<path fill="#435757" d="M368.5,203.5h63l-31.5,28L368.5,203.5z"/>
						</g>
					</g>
					<g transform="translate(400,200) scale(0.7) rotate(180)">
						<g id="shape_1_293_">
							<path fill="#435757" d="M431.5,196.5h-63l31.5-28L431.5,196.5z"/>
						</g>
					</g>
					<g transform="translate(400,300) scale(0.5) rotate(0)">
						<g id="shape_1_294_">
							<path fill="#435757" d="M377.5,302.5h45l-22.5,20L377.5,302.5z"/>
						</g>
					</g>
					<g transform="translate(400,300) scale(0.5) rotate(180)">
						<g id="shape_1_295_">
							<path fill="#435757" d="M422.5,297.5h-45l22.5-20L422.5,297.5z"/>
						</g>
					</g>
					<g transform="translate(400,400) scale(0.3) rotate(0)">
						<g id="shape_1_296_">
							<path fill="#435757" d="M386.5,401.5h27l-13.5,12L386.5,401.5z"/>
						</g>
					</g>
					<g transform="translate(400,400) scale(0.3) rotate(180)">
						<g id="shape_1_297_">
							<path fill="#435757" d="M413.5,398.5h-27l13.5-12L413.5,398.5z"/>
						</g>
					</g>
					<g transform="translate(400,500) scale(0.2) rotate(0)">
						<g id="shape_1_298_">
							<path fill="#435757" d="M391,501h18l-9,8L391,501z"/>
						</g>
					</g>
					<g transform="translate(400,500) scale(0.2) rotate(180)">
						<g id="shape_1_299_">
							<path fill="#435757" d="M409,499h-18l9-8L409,499z"/>
						</g>
					</g>
					<g transform="translate(400,600) scale(0.3) rotate(0)">
						<g id="shape_1_300_">
							<path fill="#435757" d="M386.5,601.5h27l-13.5,12L386.5,601.5z"/>
						</g>
					</g>
					<g transform="translate(400,600) scale(0.3) rotate(180)">
						<g id="shape_1_301_">
							<path fill="#435757" d="M413.5,598.5h-27l13.5-12L413.5,598.5z"/>
						</g>
					</g>
					<g transform="translate(400,700) scale(0.5) rotate(0)">
						<g id="shape_1_302_">
							<path fill="#435757" d="M377.5,702.5h45l-22.5,20L377.5,702.5z"/>
						</g>
					</g>
					<g transform="translate(400,700) scale(0.5) rotate(180)">
						<g id="shape_1_303_">
							<path fill="#435757" d="M422.5,697.5h-45l22.5-20L422.5,697.5z"/>
						</g>
					</g>
					<g transform="translate(400,800) scale(0.7) rotate(0)">
						<g id="shape_1_304_">
							<path fill="#435757" d="M368.5,803.5h63l-31.5,28L368.5,803.5z"/>
						</g>
					</g>
					<g transform="translate(400,800) scale(0.7) rotate(180)">
						<g id="shape_1_305_">
							<path fill="#435757" d="M431.5,796.5h-63l31.5-28L431.5,796.5z"/>
						</g>
					</g>
					<g transform="translate(400,900) scale(0.9) rotate(0)">
						<g id="shape_1_306_">
							<path fill="#435757" d="M359.5,904.5h81l-40.5,36L359.5,904.5z"/>
						</g>
					</g>
					<g transform="translate(400,900) scale(0.9) rotate(180)">
						<g id="shape_1_307_">
							<path fill="#435757" d="M440.5,895.5h-81l40.5-36L440.5,895.5z"/>
						</g>
					</g>
					<g transform="translate(400,1000) scale(1) rotate(0)">
						<g id="shape_1_308_">
							<path fill="#435757" d="M355,1005h90l-45,40L355,1005z"/>
						</g>
					</g>
					<g transform="translate(400,1000) scale(1) rotate(180)">
						<g id="shape_1_309_">
							<path fill="#435757" d="M445,995h-90l45-40L445,995z"/>
						</g>
					</g>
					<g transform="translate(500,0) scale(1) rotate(0)">
						<g id="shape_1_310_">
							<path fill="#435757" d="M455,5h90l-45,40L455,5z"/>
						</g>
					</g>
					<g transform="translate(500,0) scale(1) rotate(180)">
						<g id="shape_1_311_">
							<path fill="#435757" d="M545-5h-90l45-40L545-5z"/>
						</g>
					</g>
					<g transform="translate(500,100) scale(0.9) rotate(0)">
						<g id="shape_1_312_">
							<path fill="#435757" d="M459.5,104.5h81l-40.5,36L459.5,104.5z"/>
						</g>
					</g>
					<g transform="translate(500,100) scale(0.9) rotate(180)">
						<g id="shape_1_313_">
							<path fill="#435757" d="M540.5,95.5h-81l40.5-36L540.5,95.5z"/>
						</g>
					</g>
					<g transform="translate(500,200) scale(0.7) rotate(0)">
						<g id="shape_1_314_">
							<path fill="#435757" d="M468.5,203.5h63l-31.5,28L468.5,203.5z"/>
						</g>
					</g>
					<g transform="translate(500,200) scale(0.7) rotate(180)">
						<g id="shape_1_315_">
							<path fill="#435757" d="M531.5,196.5h-63l31.5-28L531.5,196.5z"/>
						</g>
					</g>
					<g transform="translate(500,300) scale(0.5) rotate(0)">
						<g id="shape_1_316_">
							<path fill="#435757" d="M477.5,302.5h45l-22.5,20L477.5,302.5z"/>
						</g>
					</g>
					<g transform="translate(500,300) scale(0.5) rotate(180)">
						<g id="shape_1_317_">
							<path fill="#435757" d="M522.5,297.5h-45l22.5-20L522.5,297.5z"/>
						</g>
					</g>
					<g transform="translate(500,400) scale(0.3) rotate(0)">
						<g id="shape_1_318_">
							<path fill="#435757" d="M486.5,401.5h27l-13.5,12L486.5,401.5z"/>
						</g>
					</g>
					<g transform="translate(500,400) scale(0.3) rotate(180)">
						<g id="shape_1_319_">
							<path fill="#435757" d="M513.5,398.5h-27l13.5-12L513.5,398.5z"/>
						</g>
					</g>
					<g transform="translate(500,500) scale(0.2) rotate(0)">
						<g id="shape_1_320_">
							<path fill="#435757" d="M491,501h18l-9,8L491,501z"/>
						</g>
					</g>
					<g transform="translate(500,500) scale(0.2) rotate(180)">
						<g id="shape_1_321_">
							<path fill="#435757" d="M509,499h-18l9-8L509,499z"/>
						</g>
					</g>
					<g transform="translate(500,600) scale(0.3) rotate(0)">
						<g id="shape_1_322_">
							<path fill="#435757" d="M486.5,601.5h27l-13.5,12L486.5,601.5z"/>
						</g>
					</g>
					<g transform="translate(500,600) scale(0.3) rotate(180)">
						<g id="shape_1_323_">
							<path fill="#435757" d="M513.5,598.5h-27l13.5-12L513.5,598.5z"/>
						</g>
					</g>
					<g transform="translate(500,700) scale(0.5) rotate(0)">
						<g id="shape_1_324_">
							<path fill="#435757" d="M477.5,702.5h45l-22.5,20L477.5,702.5z"/>
						</g>
					</g>
					<g transform="translate(500,700) scale(0.5) rotate(180)">
						<g id="shape_1_325_">
							<path fill="#435757" d="M522.5,697.5h-45l22.5-20L522.5,697.5z"/>
						</g>
					</g>
					<g transform="translate(500,800) scale(0.7) rotate(0)">
						<g id="shape_1_326_">
							<path fill="#435757" d="M468.5,803.5h63l-31.5,28L468.5,803.5z"/>
						</g>
					</g>
					<g transform="translate(500,800) scale(0.7) rotate(180)">
						<g id="shape_1_327_">
							<path fill="#435757" d="M531.5,796.5h-63l31.5-28L531.5,796.5z"/>
						</g>
					</g>
					<g transform="translate(500,900) scale(0.9) rotate(0)">
						<g id="shape_1_328_">
							<path fill="#435757" d="M459.5,904.5h81l-40.5,36L459.5,904.5z"/>
						</g>
					</g>
					<g transform="translate(500,900) scale(0.9) rotate(180)">
						<g id="shape_1_329_">
							<path fill="#435757" d="M540.5,895.5h-81l40.5-36L540.5,895.5z"/>
						</g>
					</g>
					<g transform="translate(500,1000) scale(1) rotate(0)">
						<g id="shape_1_330_">
							<path fill="#435757" d="M455,1005h90l-45,40L455,1005z"/>
						</g>
					</g>
					<g transform="translate(500,1000) scale(1) rotate(180)">
						<g id="shape_1_331_">
							<path fill="#435757" d="M545,995h-90l45-40L545,995z"/>
						</g>
					</g>
					<g transform="translate(600,0) scale(1) rotate(0)">
						<g id="shape_1_332_">
							<path fill="#435757" d="M555,5h90l-45,40L555,5z"/>
						</g>
					</g>
					<g transform="translate(600,0) scale(1) rotate(180)">
						<g id="shape_1_333_">
							<path fill="#435757" d="M645-5h-90l45-40L645-5z"/>
						</g>
					</g>
					<g transform="translate(600,100) scale(0.9) rotate(0)">
						<g id="shape_1_334_">
							<path fill="#435757" d="M559.5,104.5h81l-40.5,36L559.5,104.5z"/>
						</g>
					</g>
					<g transform="translate(600,100) scale(0.9) rotate(180)">
						<g id="shape_1_335_">
							<path fill="#435757" d="M640.5,95.5h-81l40.5-36L640.5,95.5z"/>
						</g>
					</g>
					<g transform="translate(600,200) scale(0.7) rotate(0)">
						<g id="shape_1_336_">
							<path fill="#435757" d="M568.5,203.5h63l-31.5,28L568.5,203.5z"/>
						</g>
					</g>
					<g transform="translate(600,200) scale(0.7) rotate(180)">
						<g id="shape_1_337_">
							<path fill="#435757" d="M631.5,196.5h-63l31.5-28L631.5,196.5z"/>
						</g>
					</g>
					<g transform="translate(600,300) scale(0.5) rotate(0)">
						<g id="shape_1_338_">
							<path fill="#435757" d="M577.5,302.5h45l-22.5,20L577.5,302.5z"/>
						</g>
					</g>
					<g transform="translate(600,300) scale(0.5) rotate(180)">
						<g id="shape_1_339_">
							<path fill="#435757" d="M622.5,297.5h-45l22.5-20L622.5,297.5z"/>
						</g>
					</g>
					<g transform="translate(600,400) scale(0.3) rotate(0)">
						<g id="shape_1_340_">
							<path fill="#435757" d="M586.5,401.5h27l-13.5,12L586.5,401.5z"/>
						</g>
					</g>
					<g transform="translate(600,400) scale(0.3) rotate(180)">
						<g id="shape_1_341_">
							<path fill="#435757" d="M613.5,398.5h-27l13.5-12L613.5,398.5z"/>
						</g>
					</g>
					<g transform="translate(600,500) scale(0.2) rotate(0)">
						<g id="shape_1_342_">
							<path fill="#435757" d="M591,501h18l-9,8L591,501z"/>
						</g>
					</g>
					<g transform="translate(600,500) scale(0.2) rotate(180)">
						<g id="shape_1_343_">
							<path fill="#435757" d="M609,499h-18l9-8L609,499z"/>
						</g>
					</g>
					<g transform="translate(600,600) scale(0.3) rotate(0)">
						<g id="shape_1_344_">
							<path fill="#435757" d="M586.5,601.5h27l-13.5,12L586.5,601.5z"/>
						</g>
					</g>
					<g transform="translate(600,600) scale(0.3) rotate(180)">
						<g id="shape_1_345_">
							<path fill="#435757" d="M613.5,598.5h-27l13.5-12L613.5,598.5z"/>
						</g>
					</g>
					<g transform="translate(600,700) scale(0.5) rotate(0)">
						<g id="shape_1_346_">
							<path fill="#435757" d="M577.5,702.5h45l-22.5,20L577.5,702.5z"/>
						</g>
					</g>
					<g transform="translate(600,700) scale(0.5) rotate(180)">
						<g id="shape_1_347_">
							<path fill="#435757" d="M622.5,697.5h-45l22.5-20L622.5,697.5z"/>
						</g>
					</g>
					<g transform="translate(600,800) scale(0.7) rotate(0)">
						<g id="shape_1_348_">
							<path fill="#435757" d="M568.5,803.5h63l-31.5,28L568.5,803.5z"/>
						</g>
					</g>
					<g transform="translate(600,800) scale(0.7) rotate(180)">
						<g id="shape_1_349_">
							<path fill="#435757" d="M631.5,796.5h-63l31.5-28L631.5,796.5z"/>
						</g>
					</g>
					<g transform="translate(600,900) scale(0.9) rotate(0)">
						<g id="shape_1_350_">
							<path fill="#435757" d="M559.5,904.5h81l-40.5,36L559.5,904.5z"/>
						</g>
					</g>
					<g transform="translate(600,900) scale(0.9) rotate(180)">
						<g id="shape_1_351_">
							<path fill="#435757" d="M640.5,895.5h-81l40.5-36L640.5,895.5z"/>
						</g>
					</g>
					<g transform="translate(600,1000) scale(1) rotate(0)">
						<g id="shape_1_352_">
							<path fill="#435757" d="M555,1005h90l-45,40L555,1005z"/>
						</g>
					</g>
					<g transform="translate(600,1000) scale(1) rotate(180)">
						<g id="shape_1_353_">
							<path fill="#435757" d="M645,995h-90l45-40L645,995z"/>
						</g>
					</g>
					<g transform="translate(700,0) scale(1) rotate(0)">
						<g id="shape_1_354_">
							<path fill="#435757" d="M655,5h90l-45,40L655,5z"/>
						</g>
					</g>
					<g transform="translate(700,0) scale(1) rotate(180)">
						<g id="shape_1_355_">
							<path fill="#435757" d="M745-5h-90l45-40L745-5z"/>
						</g>
					</g>
					<g transform="translate(700,100) scale(0.9) rotate(0)">
						<g id="shape_1_356_">
							<path fill="#435757" d="M659.5,104.5h81l-40.5,36L659.5,104.5z"/>
						</g>
					</g>
					<g transform="translate(700,100) scale(0.9) rotate(180)">
						<g id="shape_1_357_">
							<path fill="#435757" d="M740.5,95.5h-81l40.5-36L740.5,95.5z"/>
						</g>
					</g>
					<g transform="translate(700,200) scale(0.7) rotate(0)">
						<g id="shape_1_358_">
							<path fill="#435757" d="M668.5,203.5h63l-31.5,28L668.5,203.5z"/>
						</g>
					</g>
					<g transform="translate(700,200) scale(0.7) rotate(180)">
						<g id="shape_1_359_">
							<path fill="#435757" d="M731.5,196.5h-63l31.5-28L731.5,196.5z"/>
						</g>
					</g>
					<g transform="translate(700,300) scale(0.5) rotate(0)">
						<g id="shape_1_360_">
							<path fill="#435757" d="M677.5,302.5h45l-22.5,20L677.5,302.5z"/>
						</g>
					</g>
					<g transform="translate(700,300) scale(0.5) rotate(180)">
						<g id="shape_1_361_">
							<path fill="#435757" d="M722.5,297.5h-45l22.5-20L722.5,297.5z"/>
						</g>
					</g>
					<g transform="translate(700,400) scale(0.3) rotate(0)">
						<g id="shape_1_362_">
							<path fill="#435757" d="M686.5,401.5h27l-13.5,12L686.5,401.5z"/>
						</g>
					</g>
					<g transform="translate(700,400) scale(0.3) rotate(180)">
						<g id="shape_1_363_">
							<path fill="#435757" d="M713.5,398.5h-27l13.5-12L713.5,398.5z"/>
						</g>
					</g>
					<g transform="translate(700,500) scale(0.2) rotate(0)">
						<g id="shape_1_364_">
							<path fill="#435757" d="M691,501h18l-9,8L691,501z"/>
						</g>
					</g>
					<g transform="translate(700,500) scale(0.2) rotate(180)">
						<g id="shape_1_365_">
							<path fill="#435757" d="M709,499h-18l9-8L709,499z"/>
						</g>
					</g>
					<g transform="translate(700,600) scale(0.3) rotate(0)">
						<g id="shape_1_366_">
							<path fill="#435757" d="M686.5,601.5h27l-13.5,12L686.5,601.5z"/>
						</g>
					</g>
					<g transform="translate(700,600) scale(0.3) rotate(180)">
						<g id="shape_1_367_">
							<path fill="#435757" d="M713.5,598.5h-27l13.5-12L713.5,598.5z"/>
						</g>
					</g>
					<g transform="translate(700,700) scale(0.5) rotate(0)">
						<g id="shape_1_368_">
							<path fill="#435757" d="M677.5,702.5h45l-22.5,20L677.5,702.5z"/>
						</g>
					</g>
					<g transform="translate(700,700) scale(0.5) rotate(180)">
						<g id="shape_1_369_">
							<path fill="#435757" d="M722.5,697.5h-45l22.5-20L722.5,697.5z"/>
						</g>
					</g>
					<g transform="translate(700,800) scale(0.7) rotate(0)">
						<g id="shape_1_370_">
							<path fill="#435757" d="M668.5,803.5h63l-31.5,28L668.5,803.5z"/>
						</g>
					</g>
					<g transform="translate(700,800) scale(0.7) rotate(180)">
						<g id="shape_1_371_">
							<path fill="#435757" d="M731.5,796.5h-63l31.5-28L731.5,796.5z"/>
						</g>
					</g>
					<g transform="translate(700,900) scale(0.9) rotate(0)">
						<g id="shape_1_372_">
							<path fill="#435757" d="M659.5,904.5h81l-40.5,36L659.5,904.5z"/>
						</g>
					</g>
					<g transform="translate(700,900) scale(0.9) rotate(180)">
						<g id="shape_1_373_">
							<path fill="#435757" d="M740.5,895.5h-81l40.5-36L740.5,895.5z"/>
						</g>
					</g>
					<g transform="translate(700,1000) scale(1) rotate(0)">
						<g id="shape_1_374_">
							<path fill="#435757" d="M655,1005h90l-45,40L655,1005z"/>
						</g>
					</g>
					<g transform="translate(700,1000) scale(1) rotate(180)">
						<g id="shape_1_375_">
							<path fill="#435757" d="M745,995h-90l45-40L745,995z"/>
						</g>
					</g>
					<g transform="translate(800,0) scale(1) rotate(0)">
						<g id="shape_1_376_">
							<path fill="#435757" d="M755,5h90l-45,40L755,5z"/>
						</g>
					</g>
					<g transform="translate(800,0) scale(1) rotate(180)">
						<g id="shape_1_377_">
							<path fill="#435757" d="M845-5h-90l45-40L845-5z"/>
						</g>
					</g>
					<g transform="translate(800,100) scale(0.9) rotate(0)">
						<g id="shape_1_378_">
							<path fill="#435757" d="M759.5,104.5h81l-40.5,36L759.5,104.5z"/>
						</g>
					</g>
					<g transform="translate(800,100) scale(0.9) rotate(180)">
						<g id="shape_1_379_">
							<path fill="#435757" d="M840.5,95.5h-81l40.5-36L840.5,95.5z"/>
						</g>
					</g>
					<g transform="translate(800,200) scale(0.7) rotate(0)">
						<g id="shape_1_380_">
							<path fill="#435757" d="M768.5,203.5h63l-31.5,28L768.5,203.5z"/>
						</g>
					</g>
					<g transform="translate(800,200) scale(0.7) rotate(180)">
						<g id="shape_1_381_">
							<path fill="#435757" d="M831.5,196.5h-63l31.5-28L831.5,196.5z"/>
						</g>
					</g>
					<g transform="translate(800,300) scale(0.5) rotate(0)">
						<g id="shape_1_382_">
							<path fill="#435757" d="M777.5,302.5h45l-22.5,20L777.5,302.5z"/>
						</g>
					</g>
					<g transform="translate(800,300) scale(0.5) rotate(180)">
						<g id="shape_1_383_">
							<path fill="#435757" d="M822.5,297.5h-45l22.5-20L822.5,297.5z"/>
						</g>
					</g>
					<g transform="translate(800,400) scale(0.3) rotate(0)">
						<g id="shape_1_384_">
							<path fill="#435757" d="M786.5,401.5h27l-13.5,12L786.5,401.5z"/>
						</g>
					</g>
					<g transform="translate(800,400) scale(0.3) rotate(180)">
						<g id="shape_1_385_">
							<path fill="#435757" d="M813.5,398.5h-27l13.5-12L813.5,398.5z"/>
						</g>
					</g>
					<g transform="translate(800,500) scale(0.2) rotate(0)">
						<g id="shape_1_386_">
							<path fill="#435757" d="M791,501h18l-9,8L791,501z"/>
						</g>
					</g>
					<g transform="translate(800,500) scale(0.2) rotate(180)">
						<g id="shape_1_387_">
							<path fill="#435757" d="M809,499h-18l9-8L809,499z"/>
						</g>
					</g>
					<g transform="translate(800,600) scale(0.3) rotate(0)">
						<g id="shape_1_388_">
							<path fill="#435757" d="M786.5,601.5h27l-13.5,12L786.5,601.5z"/>
						</g>
					</g>
					<g transform="translate(800,600) scale(0.3) rotate(180)">
						<g id="shape_1_389_">
							<path fill="#435757" d="M813.5,598.5h-27l13.5-12L813.5,598.5z"/>
						</g>
					</g>
					<g transform="translate(800,700) scale(0.5) rotate(0)">
						<g id="shape_1_390_">
							<path fill="#435757" d="M777.5,702.5h45l-22.5,20L777.5,702.5z"/>
						</g>
					</g>
					<g transform="translate(800,700) scale(0.5) rotate(180)">
						<g id="shape_1_391_">
							<path fill="#435757" d="M822.5,697.5h-45l22.5-20L822.5,697.5z"/>
						</g>
					</g>
					<g transform="translate(800,800) scale(0.7) rotate(0)">
						<g id="shape_1_392_">
							<path fill="#435757" d="M768.5,803.5h63l-31.5,28L768.5,803.5z"/>
						</g>
					</g>
					<g transform="translate(800,800) scale(0.7) rotate(180)">
						<g id="shape_1_393_">
							<path fill="#435757" d="M831.5,796.5h-63l31.5-28L831.5,796.5z"/>
						</g>
					</g>
					<g transform="translate(800,900) scale(0.9) rotate(0)">
						<g id="shape_1_394_">
							<path fill="#435757" d="M759.5,904.5h81l-40.5,36L759.5,904.5z"/>
						</g>
					</g>
					<g transform="translate(800,900) scale(0.9) rotate(180)">
						<g id="shape_1_395_">
							<path fill="#435757" d="M840.5,895.5h-81l40.5-36L840.5,895.5z"/>
						</g>
					</g>
					<g transform="translate(800,1000) scale(1) rotate(0)">
						<g id="shape_1_396_">
							<path fill="#435757" d="M755,1005h90l-45,40L755,1005z"/>
						</g>
					</g>
					<g transform="translate(800,1000) scale(1) rotate(180)">
						<g id="shape_1_397_">
							<path fill="#435757" d="M845,995h-90l45-40L845,995z"/>
						</g>
					</g>
					<g transform="translate(900,0) scale(1) rotate(0)">
						<g id="shape_1_398_">
							<path fill="#435757" d="M855,5h90l-45,40L855,5z"/>
						</g>
					</g>
					<g transform="translate(900,0) scale(1) rotate(180)">
						<g id="shape_1_399_">
							<path fill="#435757" d="M945-5h-90l45-40L945-5z"/>
						</g>
					</g>
					<g transform="translate(900,100) scale(0.9) rotate(0)">
						<g id="shape_1_400_">
							<path fill="#435757" d="M859.5,104.5h81l-40.5,36L859.5,104.5z"/>
						</g>
					</g>
					<g transform="translate(900,100) scale(0.9) rotate(180)">
						<g id="shape_1_401_">
							<path fill="#435757" d="M940.5,95.5h-81l40.5-36L940.5,95.5z"/>
						</g>
					</g>
					<g transform="translate(900,200) scale(0.7) rotate(0)">
						<g id="shape_1_402_">
							<path fill="#435757" d="M868.5,203.5h63l-31.5,28L868.5,203.5z"/>
						</g>
					</g>
					<g transform="translate(900,200) scale(0.7) rotate(180)">
						<g id="shape_1_403_">
							<path fill="#435757" d="M931.5,196.5h-63l31.5-28L931.5,196.5z"/>
						</g>
					</g>
					<g transform="translate(900,300) scale(0.5) rotate(0)">
						<g id="shape_1_404_">
							<path fill="#435757" d="M877.5,302.5h45l-22.5,20L877.5,302.5z"/>
						</g>
					</g>
					<g transform="translate(900,300) scale(0.5) rotate(180)">
						<g id="shape_1_405_">
							<path fill="#435757" d="M922.5,297.5h-45l22.5-20L922.5,297.5z"/>
						</g>
					</g>
					<g transform="translate(900,400) scale(0.3) rotate(0)">
						<g id="shape_1_406_">
							<path fill="#435757" d="M886.5,401.5h27l-13.5,12L886.5,401.5z"/>
						</g>
					</g>
					<g transform="translate(900,400) scale(0.3) rotate(180)">
						<g id="shape_1_407_">
							<path fill="#435757" d="M913.5,398.5h-27l13.5-12L913.5,398.5z"/>
						</g>
					</g>
					<g transform="translate(900,500) scale(0.2) rotate(0)">
						<g id="shape_1_408_">
							<path fill="#435757" d="M891,501h18l-9,8L891,501z"/>
						</g>
					</g>
					<g transform="translate(900,500) scale(0.2) rotate(180)">
						<g id="shape_1_409_">
							<path fill="#435757" d="M909,499h-18l9-8L909,499z"/>
						</g>
					</g>
					<g transform="translate(900,600) scale(0.3) rotate(0)">
						<g id="shape_1_410_">
							<path fill="#435757" d="M886.5,601.5h27l-13.5,12L886.5,601.5z"/>
						</g>
					</g>
					<g transform="translate(900,600) scale(0.3) rotate(180)">
						<g id="shape_1_411_">
							<path fill="#435757" d="M913.5,598.5h-27l13.5-12L913.5,598.5z"/>
						</g>
					</g>
					<g transform="translate(900,700) scale(0.5) rotate(0)">
						<g id="shape_1_412_">
							<path fill="#435757" d="M877.5,702.5h45l-22.5,20L877.5,702.5z"/>
						</g>
					</g>
					<g transform="translate(900,700) scale(0.5) rotate(180)">
						<g id="shape_1_413_">
							<path fill="#435757" d="M922.5,697.5h-45l22.5-20L922.5,697.5z"/>
						</g>
					</g>
					<g transform="translate(900,800) scale(0.7) rotate(0)">
						<g id="shape_1_414_">
							<path fill="#435757" d="M868.5,803.5h63l-31.5,28L868.5,803.5z"/>
						</g>
					</g>
					<g transform="translate(900,800) scale(0.7) rotate(180)">
						<g id="shape_1_415_">
							<path fill="#435757" d="M931.5,796.5h-63l31.5-28L931.5,796.5z"/>
						</g>
					</g>
					<g transform="translate(900,900) scale(0.9) rotate(0)">
						<g id="shape_1_416_">
							<path fill="#435757" d="M859.5,904.5h81l-40.5,36L859.5,904.5z"/>
						</g>
					</g>
					<g transform="translate(900,900) scale(0.9) rotate(180)">
						<g id="shape_1_417_">
							<path fill="#435757" d="M940.5,895.5h-81l40.5-36L940.5,895.5z"/>
						</g>
					</g>
					<g transform="translate(900,1000) scale(1) rotate(0)">
						<g id="shape_1_418_">
							<path fill="#435757" d="M855,1005h90l-45,40L855,1005z"/>
						</g>
					</g>
					<g transform="translate(900,1000) scale(1) rotate(180)">
						<g id="shape_1_419_">
							<path fill="#435757" d="M945,995h-90l45-40L945,995z"/>
						</g>
					</g>
					<g transform="translate(1000,0) scale(1) rotate(0)">
						<g id="shape_1_420_">
							<path fill="#435757" d="M955,5h90l-45,40L955,5z"/>
						</g>
					</g>
					<g transform="translate(1000,0) scale(1) rotate(180)">
						<g id="shape_1_421_">
							<path fill="#435757" d="M1045-5h-90l45-40L1045-5z"/>
						</g>
					</g>
					<g transform="translate(1000,100) scale(0.9) rotate(0)">
						<g id="shape_1_422_">
							<path fill="#435757" d="M959.5,104.5h81l-40.5,36L959.5,104.5z"/>
						</g>
					</g>
					<g transform="translate(1000,100) scale(0.9) rotate(180)">
						<g id="shape_1_423_">
							<path fill="#435757" d="M1040.5,95.5h-81l40.5-36L1040.5,95.5z"/>
						</g>
					</g>
					<g transform="translate(1000,200) scale(0.7) rotate(0)">
						<g id="shape_1_424_">
							<path fill="#435757" d="M968.5,203.5h63l-31.5,28L968.5,203.5z"/>
						</g>
					</g>
					<g transform="translate(1000,200) scale(0.7) rotate(180)">
						<g id="shape_1_425_">
							<path fill="#435757" d="M1031.5,196.5h-63l31.5-28L1031.5,196.5z"/>
						</g>
					</g>
					<g transform="translate(1000,300) scale(0.5) rotate(0)">
						<g id="shape_1_426_">
							<path fill="#435757" d="M977.5,302.5h45l-22.5,20L977.5,302.5z"/>
						</g>
					</g>
					<g transform="translate(1000,300) scale(0.5) rotate(180)">
						<g id="shape_1_427_">
							<path fill="#435757" d="M1022.5,297.5h-45l22.5-20L1022.5,297.5z"/>
						</g>
					</g>
					<g transform="translate(1000,400) scale(0.3) rotate(0)">
						<g id="shape_1_428_">
							<path fill="#435757" d="M986.5,401.5h27l-13.5,12L986.5,401.5z"/>
						</g>
					</g>
					<g transform="translate(1000,400) scale(0.3) rotate(180)">
						<g id="shape_1_429_">
							<path fill="#435757" d="M1013.5,398.5h-27l13.5-12L1013.5,398.5z"/>
						</g>
					</g>
					<g transform="translate(1000,500) scale(0.2) rotate(0)">
						<g id="shape_1_430_">
							<path fill="#435757" d="M991,501h18l-9,8L991,501z"/>
						</g>
					</g>
					<g transform="translate(1000,500) scale(0.2) rotate(180)">
						<g id="shape_1_431_">
							<path fill="#435757" d="M1009,499h-18l9-8L1009,499z"/>
						</g>
					</g>
					<g transform="translate(1000,600) scale(0.3) rotate(0)">
						<g id="shape_1_432_">
							<path fill="#435757" d="M986.5,601.5h27l-13.5,12L986.5,601.5z"/>
						</g>
					</g>
					<g transform="translate(1000,600) scale(0.3) rotate(180)">
						<g id="shape_1_433_">
							<path fill="#435757" d="M1013.5,598.5h-27l13.5-12L1013.5,598.5z"/>
						</g>
					</g>
					<g transform="translate(1000,700) scale(0.5) rotate(0)">
						<g id="shape_1_434_">
							<path fill="#435757" d="M977.5,702.5h45l-22.5,20L977.5,702.5z"/>
						</g>
					</g>
					<g transform="translate(1000,700) scale(0.5) rotate(180)">
						<g id="shape_1_435_">
							<path fill="#435757" d="M1022.5,697.5h-45l22.5-20L1022.5,697.5z"/>
						</g>
					</g>
					<g transform="translate(1000,800) scale(0.7) rotate(0)">
						<g id="shape_1_436_">
							<path fill="#435757" d="M968.5,803.5h63l-31.5,28L968.5,803.5z"/>
						</g>
					</g>
					<g transform="translate(1000,800) scale(0.7) rotate(180)">
						<g id="shape_1_437_">
							<path fill="#435757" d="M1031.5,796.5h-63l31.5-28L1031.5,796.5z"/>
						</g>
					</g>
					<g transform="translate(1000,900) scale(0.9) rotate(0)">
						<g id="shape_1_438_">
							<path fill="#435757" d="M959.5,904.5h81l-40.5,36L959.5,904.5z"/>
						</g>
					</g>
					<g transform="translate(1000,900) scale(0.9) rotate(180)">
						<g id="shape_1_439_">
							<path fill="#435757" d="M1040.5,895.5h-81l40.5-36L1040.5,895.5z"/>
						</g>
					</g>
					<g transform="translate(1000,1000) scale(1) rotate(0)">
						<g id="shape_1_440_">
							<path fill="#435757" d="M955,1005h90l-45,40L955,1005z"/>
						</g>
					</g>
					<g transform="skewX(0)">
						<g id="shape_1_441_">
							<path fill="#435757" d="M1045,995h-90l45-40L1045,995z"/>
						</g>
					</g>
				</g>
			</g>
		</g>
	</g>
</g>
</svg>
